<svg height="250" preserveAspectRatio="xMidYMid" viewBox="0 0 247 250" width="247" xmlns="http://www.w3.org/2000/svg" xmlns:xlink="http://www.w3.org/1999/xlink"><linearGradient id="a" gradientUnits="userSpaceOnUse" x1="118.5" x2="118.5" y1="250" y2="60"><stop offset="0" stop-color="#fce202"/><stop offset="1" stop-color="#cfe700"/></linearGradient><g fill-rule="evenodd"><path d="m111.02 70.812c-.515-7.306-1.661-15.743-4.02-24-4.26-14.91-15.562-32.353-17.562-35.553s-2.638-7.847 2.562-10.447 9.8 1.582 13 6c0 0 11.4 16.401 17 36 2.659 9.307 3.965 19.401 4.588 28z" fill="#987160"/><path d="m183.065 5.528c34.408-9.22 61.399-.744 62.907 4.885 1.681 6.272-17.628 26.464-52.037 35.684-34.408 9.22-60.192 5.251-62.908-4.885s17.629-26.464 52.038-35.684z" fill="#00e2a5"/><path d="m148 249.812c-10.364 0-20.299-1.973-29.5-5.587-9.201 3.614-19.136 5.587-29.5 5.587-47.497 0-89-62.413-89-113.5 0-51.086 21.503-76.5 69-76.5 16.139 0 31.167 9.407 49.5 9.407s33.361-9.407 49.5-9.407c47.496 0 69 25.414 69 76.5 0 51.087-41.504 113.5-89 113.5z" fill="url(#a)"/></g></svg>